<?xml version="1.0" encoding="UTF-8"?>
<!DOCTYPE svg PUBLIC "-//W3C//DTD SVG 1.1//EN" "http://www.w3.org/Graphics/SVG/1.1/DTD/svg11.dtd">
<!-- Creator: CorelDRAW -->
<?xml-stylesheet href="icon-sidebar-rxi.css" type="text/css"?>
<svg xmlns="http://www.w3.org/2000/svg" xml:space="preserve" width="256px" height="172px" version="1.1" style="shape-rendering:geometricPrecision; text-rendering:geometricPrecision; image-rendering:optimizeQuality; fill-rule:evenodd; clip-rule:evenodd"
viewBox="0 0 256 172"
 xmlns:xlink="http://www.w3.org/1999/xlink"
 xmlns:xodm="http://www.corel.com/coreldraw/odm/2003">
 <g id="Camada_x0020_1">
  <metadata id="CorelCorpID_0Corel-Layer"/>
  <path class="fil0" d="M0 29.822l52.489 0 0 22.891 -52.489 0 0 -22.891zm0 119.287l52.489 0 0 22.891 -52.489 0 0 -22.891zm0 -29.821l52.489 0 0 22.89 -52.489 0 0 -22.89zm0 -29.822l52.489 0 0 22.891 -52.489 0 0 -22.891zm0 -29.822l52.489 0 0 22.89 -52.489 0 0 -22.89z"/>
  <path class="fil1" d="M256 29.822l-75.381 0 0 142.178 75.381 0 0 -142.178zm-256 -29.822l256 0 0 22.891 -256 0 0 -22.891zm173.701 29.822l-114.293 0 0 142.178 114.293 0 0 -142.178z"/>
 </g>
</svg>
