<?xml version="1.0" encoding="UTF-8"?>
<!DOCTYPE svg PUBLIC "-//W3C//DTD SVG 1.1//EN" "http://www.w3.org/Graphics/SVG/1.1/DTD/svg11.dtd">
<!-- Creator: CorelDRAW -->
<?xml-stylesheet href="smsca-icon-docs.css" type="text/css"?>
<svg xmlns="http://www.w3.org/2000/svg" xml:space="preserve" width="24px" height="24px" version="1.1" style="shape-rendering:geometricPrecision; text-rendering:geometricPrecision; image-rendering:optimizeQuality; fill-rule:evenodd; clip-rule:evenodd"
viewBox="0 0 24 24"
 xmlns:xlink="http://www.w3.org/1999/xlink"
 xmlns:xodm="http://www.corel.com/coreldraw/odm/2003">
 <g id="Camada_x0020_1">
  <metadata id="CorelCorpID_0Corel-Layer"/>
  <path class="fil0" d="M22 17.833l0 4.167 -4.167 0 0 -4.167 4.167 0zm-15.833 -15.833l0 4.167 -4.167 0 0 -4.167 4.167 0zm-0.834 0.834l-2.499 0 0 2.499 2.499 0 0 -2.499zm16.667 -0.834l0 4.167 -4.167 0 0 -4.167 4.167 0zm-0.834 0.834l-2.499 0 0 2.499 2.499 0 0 -2.499zm-12.147 3.958l5.962 0 0 0.833 -5.962 0 0 -0.833zm-2.019 9.583l2.946 0 0 0.833 -2.946 0 0 -0.833zm-0.833 1.458l0 4.167 -4.167 0 0 -4.167 4.167 0zm-0.834 0.834l-2.499 0 0 2.499 2.499 0 0 -2.499zm15.833 0l-2.499 0 0 2.499 2.499 0 0 -2.499z"/>
  <path class="fil1" d="M7 19.5l10 0 0 0.833 -10 0 0 -0.833zm-2.5 -12.5l0 10 -0.833 0 0 -10 0.833 0zm2.5 -3.333l10 0 0 0.833 -10 0 0 -0.833zm0 5.52l10 0 0 0.834 -10 0 0 -0.834zm0 2.396l10 0 0 0.834 -10 0 0 -0.834zm0 2.396l10 0 0 0.833 -10 0 0 -0.833zm13.333 -6.979l0 10 -0.833 0 0 -10 0.833 0z"/>
 </g>
</svg>
