<?xml version="1.0" encoding="UTF-8"?>
<!DOCTYPE svg PUBLIC "-//W3C//DTD SVG 1.1//EN" "http://www.w3.org/Graphics/SVG/1.1/DTD/svg11.dtd">
<!-- Creator: CorelDRAW -->
<?xml-stylesheet href="smsca-sidebar-icone.css" type="text/css"?>
<svg xmlns="http://www.w3.org/2000/svg" xml:space="preserve" width="512px" height="512px" version="1.1" style="shape-rendering:geometricPrecision; text-rendering:geometricPrecision; image-rendering:optimizeQuality; fill-rule:evenodd; clip-rule:evenodd"
viewBox="0 0 512 512"
 xmlns:xlink="http://www.w3.org/1999/xlink"
 xmlns:xodm="http://www.corel.com/coreldraw/odm/2003">
 <g id="Camada_x0020_1">
  <metadata id="CorelCorpID_0Corel-Layer"/>
  <g id="_2195003931344">
   <rect class="fil0" x="2.283" y="2.283" width="507.433" height="507.433" rx="118.738" ry="118.738"/>
   <path class="fil1" d="M121.021 0l269.958 0c33.282,0 63.542,13.617 85.473,35.548 21.931,21.931 35.548,52.191 35.548,85.473l0 269.958c0,33.282 -13.617,63.542 -35.548,85.473 -21.931,21.931 -52.191,35.548 -85.473,35.548l-269.958 0c-33.282,0 -63.542,-13.617 -85.473,-35.548 -21.931,-21.931 -35.548,-52.191 -35.548,-85.473l0 -269.958c0,-33.282 13.617,-63.542 35.548,-85.473 21.931,-21.931 52.191,-35.548 85.473,-35.548zm269.958 4.567l-269.958 0c-32.024,0 -61.141,13.104 -82.245,34.209 -21.105,21.104 -34.209,50.221 -34.209,82.245l0 269.958c0,32.024 13.104,61.141 34.209,82.245 21.104,21.105 50.221,34.209 82.245,34.209l269.958 0c32.024,0 61.141,-13.104 82.245,-34.209 21.105,-21.104 34.209,-50.221 34.209,-82.245l0 -269.958c0,-32.024 -13.104,-61.141 -34.209,-82.245 -21.104,-21.105 -50.221,-34.209 -82.245,-34.209z"/>
   <path class="fil2" d="M162.463 135.559l31.801 0 155.271 0c13.791,0 26.336,5.65 35.436,14.746l0.053 0c9.097,9.096 14.746,21.662 14.746,35.489l0 140.412c0,13.791 -5.649,26.336 -14.746,35.436l-0.053 0.053c-9.1,9.096 -21.645,14.746 -35.436,14.746l-155.271 0 -31.801 0c-13.827,0 -26.393,-5.65 -35.489,-14.746l0 -0.053c-9.097,-9.1 -14.746,-21.645 -14.746,-35.436l0 -140.412c0,-13.827 5.649,-26.393 14.746,-35.489 9.096,-9.096 21.662,-14.746 35.489,-14.746zm54.635 27.403l0 186.076 132.437 0c6.286,0 12.003,-2.563 16.142,-6.69 4.127,-4.139 6.69,-9.856 6.69,-16.142l0 -140.412c0,-6.266 -2.573,-11.973 -6.716,-16.116l0.026 -0.026c-4.139,-4.127 -9.856,-6.69 -16.142,-6.69l-132.437 0zm-27.403 186.076l0 -186.076 -27.232 0c-6.266,0 -11.973,2.573 -16.116,6.716 -4.143,4.143 -6.716,9.85 -6.716,16.116l0 140.412c0,6.286 2.563,12.003 6.69,16.142l0.026 -0.026c4.143,4.142 9.85,6.716 16.116,6.716l27.232 0z"/>
  </g>
 </g>
</svg>
